<?xml version="1.0" encoding="UTF-8" standalone="no"?>
<svg
   xmlns:dc="http://purl.org/dc/elements/1.1/"
   xmlns:cc="http://creativecommons.org/ns#"
   xmlns:rdf="http://www.w3.org/1999/02/22-rdf-syntax-ns#"
   xmlns:svg="http://www.w3.org/2000/svg"
   xmlns="http://www.w3.org/2000/svg"
   xmlns:xlink="http://www.w3.org/1999/xlink"
   id="svg10"
   version="1.1"
   height="16"
   width="16">
  <metadata
     id="metadata16">
    <rdf:RDF>
      <cc:Work
         rdf:about="">
        <dc:format>image/svg+xml</dc:format>
        <dc:type
           rdf:resource="http://purl.org/dc/dcmitype/StillImage" />
        <dc:title></dc:title>
      </cc:Work>
    </rdf:RDF>
  </metadata>
  <defs
     id="defs14" />
  <g
     style="color:#000000;fill:#474747"
     transform="translate(0,-4.1)"
     id="g8">
    <path
       id="path2"
       overflow="visible"
       font-weight="400"
       style="font-weight:400;line-height:normal;font-family:sans-serif;font-variant-ligatures:normal;font-variant-position:normal;font-variant-caps:normal;font-variant-numeric:normal;font-variant-alternates:normal;font-feature-settings:normal;text-indent:0;text-align:start;text-decoration:none;text-decoration-line:none;text-decoration-style:solid;text-decoration-color:#000000;text-transform:none;text-orientation:mixed;white-space:normal;shape-padding:0;overflow:visible;isolation:auto;mix-blend-mode:normal;marker:none"
       d="M 8,6.086 2.293,9.293 3.707,10.707 8,8.914 l 4.293,1.793 1.414,-1.414 z" />
    <path
       id="path4"
       overflow="visible"
       style="overflow:visible;marker:none"
       d="m 13,10 v 1 h 1 V 10 Z M 2,10 v 1 h 1 v -1 z" />
    <path
       id="path6"
       overflow="visible"
       style="overflow:visible;marker:none"
       d="m 2,10 c 0,0.554 0.446,1 1,1 0.554,0 1,-0.446 1,-1 C 4,9.446 3.554,9 3,9 2.446,9 2,9.446 2,10 Z m 10,0 c 0,0.554 0.446,1 1,1 0.554,0 1,-0.446 1,-1 0,-0.554 -0.446,-1 -1,-1 -0.554,0 -1,0.446 -1,1 z" />
  </g>
  <use
     height="100%"
     width="100%"
     transform="matrix(1,0,0,-1,0,15.986)"
     id="use18"
     xlink:href="#g8"
     y="0"
     x="0" />
</svg>
