<?xml version="1.0" encoding="UTF-8"?>
<svg height="16px" viewBox="0 0 16 16" width="16px" xmlns="http://www.w3.org/2000/svg">
    <g fill="#5e5c64">
        <path d="m 3 10 c -0.554688 0 -1 0.445312 -1 1 s 0.445312 1 1 1 h 5.773438 l -0.054688 -2 z m 0 0"/>
        <path d="m 11 8 c -1.65625 0 -3 1.34375 -3 3 s 1.34375 3 3 3 s 3 -1.34375 3 -3 s -1.34375 -3 -3 -3 z m 0 1 c 1.105469 0 2 0.894531 2 2 s -0.894531 2 -2 2 s -2 -0.894531 -2 -2 s 0.894531 -2 2 -2 z m 0 0"/>
        <path d="m 13 6 c 0.554688 0 1 -0.445312 1 -1 s -0.445312 -1 -1 -1 h -5.773438 l 0.054688 2 z m 0 0"/>
        <path d="m 5 8 c 1.65625 0 3 -1.34375 3 -3 s -1.34375 -3 -3 -3 s -3 1.34375 -3 3 s 1.34375 3 3 3 z m 0 -1 c -1.105469 0 -2 -0.894531 -2 -2 s 0.894531 -2 2 -2 s 2 0.894531 2 2 s -0.894531 2 -2 2 z m 0 0"/>
    </g>
</svg>
